<?xml version="1.0" encoding="UTF-8" standalone="no"?>
<!DOCTYPE svg PUBLIC "-//W3C//DTD SVG 1.1//EN"
 "http://www.w3.org/Graphics/SVG/1.1/DTD/svg11.dtd">
<!-- Generated by graphviz version 2.40.1 (20161225.0304)
 -->
<!-- Title: G Pages: 1 -->
<svg width="172pt" height="206pt"
 viewBox="0.00 0.00 172.00 206.00" xmlns="http://www.w3.org/2000/svg" xmlns:xlink="http://www.w3.org/1999/xlink">
<g id="graph0" class="graph" transform="scale(1 1) rotate(0) translate(4 202)">
<title>G</title>
<polygon fill="#ffffff" stroke="transparent" points="-4,4 -4,-202 168,-202 168,4 -4,4"/>
<g id="clust1" class="cluster">
<title>cluster_one</title>
<g id="a_clust1"><a xlink:href="http://example.com/" xlink:title="One">
<polygon fill="#0000ff" stroke="#000000" points="8,-80 8,-154 78,-154 78,-80 8,-80"/>
<text text-anchor="middle" x="43" y="-138.8" font-family="Times,serif" font-size="14.00" fill="#000000">One</text>
</a>
</g>
</g>
<g id="clust2" class="cluster">
<title>cluster_two</title>
<polygon fill="#ff0000" stroke="#000000" points="86,-80 86,-132 156,-132 156,-80 86,-80"/>
</g>
<g id="clust3" class="cluster">
<title>cluster_three</title>
<polygon fill="none" stroke="#000000" points="46,-8 46,-60 118,-60 118,-8 46,-8"/>
</g>
<!-- one -->
<g id="node1" class="node">
<title>one</title>
<ellipse fill="none" stroke="#000000" cx="43" cy="-106" rx="27" ry="18"/>
<text text-anchor="middle" x="43" y="-101.8" font-family="Times,serif" font-size="14.00" fill="#000000">one</text>
</g>
<!-- three -->
<g id="node3" class="node">
<title>three</title>
<ellipse fill="none" stroke="#000000" cx="82" cy="-34" rx="27.5633" ry="18"/>
<text text-anchor="middle" x="82" y="-29.8" font-family="Times,serif" font-size="14.00" fill="#000000">three</text>
</g>
<!-- one&#45;&gt;three -->
<g id="edge3" class="edge">
<title>one&#45;&gt;three</title>
<path fill="none" stroke="#000000" d="M52.2425,-88.937C56.8376,-80.4537 62.495,-70.0092 67.6388,-60.513"/>
<polygon fill="#000000" stroke="#000000" points="70.8676,-61.9006 72.553,-51.4407 64.7126,-58.5666 70.8676,-61.9006"/>
</g>
<!-- two -->
<g id="node2" class="node">
<title>two</title>
<ellipse fill="none" stroke="#000000" cx="121" cy="-106" rx="27" ry="18"/>
<text text-anchor="middle" x="121" y="-101.8" font-family="Times,serif" font-size="14.00" fill="#000000">two</text>
</g>
<!-- two&#45;&gt;three -->
<g id="edge4" class="edge">
<title>two&#45;&gt;three</title>
<path fill="none" stroke="#000000" d="M111.7575,-88.937C107.1624,-80.4537 101.505,-70.0092 96.3612,-60.513"/>
<polygon fill="#000000" stroke="#000000" points="99.2874,-58.5666 91.447,-51.4407 93.1324,-61.9006 99.2874,-58.5666"/>
</g>
<!-- root -->
<g id="node4" class="node">
<title>root</title>
<polygon fill="none" stroke="#000000" points="112.2024,-185.5623 82,-198 51.7976,-185.5623 51.8258,-165.4377 112.1742,-165.4377 112.2024,-185.5623"/>
<text text-anchor="middle" x="82" y="-175.8" font-family="Times,serif" font-size="14.00" fill="#000000">root</text>
</g>
<!-- root&#45;&gt;one -->
<g id="edge1" class="edge">
<title>root&#45;&gt;one</title>
<path fill="none" stroke="#000000" d="M74.2949,-165.38C69.3001,-155.9028 62.6517,-143.2878 56.7675,-132.123"/>
<polygon fill="#000000" stroke="#000000" points="59.8164,-130.4011 52.0577,-123.1864 53.6238,-133.6648 59.8164,-130.4011"/>
</g>
<!-- root&#45;&gt;two -->
<g id="edge2" class="edge">
<title>root&#45;&gt;two</title>
<path fill="none" stroke="#000000" d="M89.7051,-165.38C94.6999,-155.9028 101.3483,-143.2878 107.2325,-132.123"/>
<polygon fill="#000000" stroke="#000000" points="110.3762,-133.6648 111.9423,-123.1864 104.1836,-130.4011 110.3762,-133.6648"/>
</g>
</g>
</svg>
